<svg width="44" height="42" viewBox="0 0 44 42" fill="none" xmlns="http://www.w3.org/2000/svg">
<rect y="35" width="43" height="6" fill="#C88570"/>
<path d="M43.3 23.7C40.8 26.2 38.3 28.7 35.9 31.2C35.4 31.7 34.9 31.7 34.4 31.2C34 30.8 33.6 30.4 33.1 29.9C32.1 28.9 32.1 28.8 33 27.7C32.3 26.9 31.6 26.2 30.6 25.9C28.9 25.4 27.8 24.3 27.3 22.6C26.5 20 25.7 17.3 25 14.7C24.9 14.3 24.8 13.8 24.8 13.4C24.8 11.6 24.8 9.79997 24.8 7.99997C23.5 7.99997 22.3 7.99997 21 7.99997C21 16.5 21 25 21 33.6C22.4 33.6 23.8 33.6 25.3 33.6C27.4 33.6 27.4 33.6 27.4 35.7C27.4 37.2 27.4 38.7 27.4 40.3C27.4 40.7 27.1 41.1 26.9 41.5C22.4 41.5 17.9 41.5 13.4 41.5C13.3 41.1 13 40.7 13.1 40.4C13.2 40.2 13.7 40 14.1 40C17.7 40 21.3 40 24.9 40C25.2 40 25.5 40 25.9 40C25.9 38.4 25.9 36.9 25.9 35.3C25.7 35.3 25.4 35.3 25.2 35.3C23.8 35.3 22.4 35.3 21.1 35.3C19.7 35.3 19.6 35.2 19.6 33.8C19.6 25.2 19.6 16.6 19.6 8.09998C19.6 7.99998 19.6 7.89999 19.6 7.79999C19.6 6.89999 19.8 6.59998 20.7 6.59998C22.3 6.59998 23.9 6.59998 25.4 6.59998C26.2 6.59998 26.5 6.89998 26.5 7.69998C26.5 9.69998 26.5 11.6 26.5 13.7C29.1 14.5 31.7 15.2 34.3 16C35.5 16.4 36.5 17 37.2 18.1C37.4 18.4 37.5 18.6 37.6 18.9C37.8 20.1 38.6 20.9 39.5 21.7C39.7 21.6 39.8 21.4 40 21.3C40.5 20.9 40.9 20.9 41.3 21.3C42 22 42.7 22.7 43.4 23.3C43.3 23.2 43.3 23.4 43.3 23.7ZM38.3 22.4C37.1 21.5 36.4 20.3 36 18.9C35.8 18.3 35.3 17.7 34.7 17.5C32.7 16.8 30.7 16.2 28.6 15.5C28.7 15.7 28.7 15.8 28.8 15.8C29.5 16.5 30.2 17.3 31 18C31.3 18.2 31.7 18.4 32.1 18.4C33.5 18.3 34.6 19.3 34.6 20.6C34.6 21.8 33.5 22.8 32.3 22.7C31 22.6 30.1 21.5 30.3 20.1C30.3 19.9 30.4 19.7 30.3 19.6C29.4 18.7 28.5 17.8 27.6 16.9C27.9 18.7 28.4 20.4 28.9 22.1C29.3 23.3 30 24.1 31.3 24.5C32.1 24.8 32.8 25.3 33.5 25.8C33.8 26 33.9 26.4 34.1 26.7C35.6 25.1 36.9 23.8 38.3 22.4ZM40.7 22.6C38.6 24.7 36.5 26.7 34.5 28.7C34.7 28.9 34.9 29.2 35.1 29.5C37.2 27.4 39.3 25.3 41.4 23.2C41.2 23.1 40.8 22.8 40.7 22.6ZM33.2 20.5C32.8 20.2 32.6 19.9 32.4 19.9C32.1 19.9 31.9 20.3 31.7 20.5C31.9 20.7 32.1 21 32.4 21.1C32.5 21.1 32.8 20.8 33.2 20.5Z" fill="#222222"/>
<path d="M5.79999 41.2C5.59999 40.8 5.29999 40.5 5.29999 40.1C5.19999 38.2 5.29999 36.3 5.29999 34.5C5.29999 33.7 5.59999 33.4 6.39999 33.4C8.19999 33.4 9.89998 33.4 11.7 33.4C11.7 24.8 11.7 16.3 11.7 7.80002C10.4 7.80002 9.19999 7.80002 7.79999 7.80002C7.79999 8.30002 7.79999 8.80002 7.79999 9.30002C7.79999 10.7 7.79999 12.1 7.79999 13.5C7.79999 14.2 7.49999 14.6 6.79999 14.6C4.89999 14.6 2.9 14.6 1 14.6C0.7 14.6 0.4 14.3 0 14.2C0 9.50001 0 4.8 0 0C10.7 0 21.4 0 32.1 0C32.3 0.3 32.6 0.600024 32.6 0.900024C32.7 1.80002 32.6 2.80001 32.6 3.70001C32.6 4.20001 32.4 4.60001 31.8 4.60001C31.2 4.60001 31.1 4.20001 31.1 3.70001C31.1 3.00001 31.1 2.40001 31.1 1.60001C21.2 1.60001 11.5 1.60001 1.59998 1.60001C1.59998 5.40001 1.59998 9.20001 1.59998 13.1C3.09998 13.1 4.59998 13.1 6.19998 13.1C6.19998 12.8 6.29999 12.6 6.29999 12.4C6.29999 10.8 6.29999 9.1 6.29999 7.5C6.29999 6.5 6.49999 6.30002 7.39999 6.30002C8.99999 6.30002 10.6 6.30002 12.1 6.30002C12.9 6.30002 13.2 6.60002 13.2 7.40002C13.2 16.3 13.2 25.1 13.2 34C13.2 34.8 12.9 35.1 12.1 35.1C10.3 35.1 8.59999 35.1 6.79999 35.1C6.79999 36.7 6.79999 38.2 6.79999 39.8C7.69999 39.8 8.49999 39.8 9.39999 39.8C9.79999 39.8 10.3 40 10.4 40.2C10.5 40.5 10.3 40.9 10.2 41.3C8.79998 41.2 7.29999 41.2 5.79999 41.2Z" fill="#222222"/>
</svg>
