<svg width="47" height="42" viewBox="0 0 47 42" fill="none" xmlns="http://www.w3.org/2000/svg">
<rect y="36" width="41" height="6" fill="#C88570"/>
<path d="M0 14.1316C0.282068 13.8496 0.507723 13.5675 0.846205 13.3418C8.06716 8.99798 15.2881 4.65413 22.5091 0.253862C23.0732 -0.0846206 23.5809 -0.0846206 24.1451 0.253862C31.366 4.59772 38.587 8.94157 45.8079 13.3418C46.1464 13.5111 46.3721 13.8496 46.6541 14.1316C46.6541 14.3009 46.6541 14.4137 46.6541 14.5829C46.2028 15.3727 45.7515 15.542 44.9617 15.0342C37.91 10.8032 30.8019 6.51578 23.7502 2.22834C23.4117 2.0591 23.2424 2.00269 22.904 2.22834C15.9087 6.45937 8.91337 10.634 1.91807 14.865C1.86165 14.9214 1.74882 14.9778 1.69241 14.9778C0.902619 15.4291 0.394896 15.3163 0 14.5265C0 14.4701 0 14.3009 0 14.1316Z" fill="#222222"/>
<path d="M26.458 31.6199C24.3707 31.6199 22.2834 31.6199 20.1961 31.6199C20.1961 31.7891 20.1961 32.0148 20.1961 32.184C20.1961 35.0047 20.1961 37.8254 20.1961 40.6461C20.1961 41.718 19.914 42 18.8422 42C14.8932 42 10.8878 42 6.93887 42C5.92343 42 5.64136 41.6615 5.64136 40.7025C5.64136 33.0867 5.64136 25.5272 5.64136 17.9114C5.64136 17.2908 5.86701 16.9523 6.37474 16.6139C11.7905 13.3983 17.2062 10.1263 22.5655 6.8543C23.0732 6.51581 23.5245 6.51581 24.0886 6.8543C29.5044 10.1263 34.8637 13.3419 40.2794 16.6139C40.7871 16.8959 41.0127 17.2908 41.0127 17.9114C41.0127 25.5272 41.0127 33.1431 41.0127 40.7589C41.0127 41.718 40.6743 42 39.7716 42C35.7663 42 31.7609 42 27.7555 42C26.8529 42 26.5144 41.6616 26.5144 40.7589C26.5144 37.9382 26.5144 35.1176 26.5144 32.2969C26.458 32.0712 26.458 31.902 26.458 31.6199ZM18.278 40.082C18.278 39.8563 18.278 39.6871 18.278 39.5178C18.278 36.6971 18.278 33.82 18.278 30.9994C18.278 30.0967 18.5601 29.7583 19.5191 29.7583C22.0577 29.7583 24.5399 29.7583 27.0786 29.7583C28.0376 29.7583 28.3197 30.0403 28.3197 30.9994C28.3197 33.8765 28.3197 36.6971 28.3197 39.5742C28.3197 39.7435 28.3197 39.9127 28.3197 40.082C31.9301 40.082 35.4842 40.082 39.0383 40.082C39.0383 39.9691 39.0383 39.8563 39.0383 39.7435C39.0383 32.6354 39.0383 25.5836 39.0383 18.4755C39.0383 18.137 38.869 18.0242 38.6434 17.9114C33.6226 14.9215 28.6581 11.9315 23.6373 8.88519C23.2988 8.71595 23.0732 8.71595 22.7911 8.88519C17.8267 11.8751 12.8059 14.865 7.84149 17.855C7.55942 18.0242 7.4466 18.1935 7.4466 18.5883C7.4466 25.5836 7.4466 32.5789 7.4466 39.6307C7.4466 39.7999 7.4466 39.9127 7.4466 40.082C11.1135 40.082 14.6676 40.082 18.278 40.082Z" fill="#222222"/>
</svg>
