<svg width="43" height="42" viewBox="0 0 43 42" fill="none" xmlns="http://www.w3.org/2000/svg">
<rect y="36" width="42" height="6" fill="#C88570"/>
<path d="M29.0993 0C29.1963 0.387991 29.3903 0.775979 29.3903 1.16397C29.3903 3.68591 29.3903 6.11086 29.3903 8.6328C29.3903 9.69978 29.2933 9.89376 28.1293 9.89376C22.4065 9.89376 16.6836 9.89376 10.9607 9.89376C10.6697 9.89376 10.2817 9.89376 9.89375 9.89376C9.89375 11.5427 9.89375 13.0947 9.89375 14.7436C10.2817 14.7436 10.5727 14.7436 10.8637 14.7436C16.5866 14.7436 22.3095 14.7436 28.0323 14.7436C29.2933 14.7436 29.2933 14.8406 29.2933 16.0046C29.2933 18.4296 29.2933 20.8545 29.2933 23.2794C29.2933 24.3464 29.1963 24.4434 28.1293 24.4434C22.4065 24.4434 16.5866 24.4434 10.8637 24.4434C10.5727 24.4434 10.1848 24.4434 9.79677 24.4434C9.79677 25.6074 9.79677 26.7714 9.79677 27.9353C9.31178 27.9353 8.82679 27.9353 8.34181 27.9353C8.34181 26.5774 8.34181 25.1224 8.34181 23.7644C8.34181 23.1824 8.82679 23.0855 9.31178 23.0855C10.6698 23.0855 12.0277 23.0855 13.2887 23.0855C17.8476 23.0855 22.3094 23.0855 26.8683 23.0855C27.1593 23.0855 27.4503 23.0855 27.8383 23.0855C27.8383 20.7575 27.8383 18.5266 27.8383 16.1016C27.5473 16.1016 27.2563 16.1016 26.8683 16.1016C21.0485 16.1016 15.3256 16.1016 9.50576 16.1016C8.43879 16.1016 8.2448 16.0046 8.2448 14.8406C8.2448 13.0947 8.2448 11.3487 8.2448 9.60278C8.2448 8.5358 8.43879 8.34181 9.50576 8.34181C15.2286 8.34181 21.0485 8.34181 26.7714 8.34181C27.0624 8.34181 27.4503 8.34181 27.8383 8.34181C27.8383 6.01386 27.8383 3.78291 27.8383 1.45497C19.0115 1.45497 10.2817 1.45497 1.35796 1.45497C1.35796 10.2818 1.35796 19.1085 1.35796 27.9353C0.775975 27.9353 0.387991 28.0323 0 28.0323C0 18.7206 0 9.40878 0 0C9.69977 0 19.3995 0 29.0993 0Z" fill="#222222"/>
<path d="M42 35.2101C41.612 35.3071 41.321 35.5981 40.933 35.5981C29.7783 35.5981 18.6235 35.5981 7.4688 35.5981C7.27481 35.5981 6.98383 35.5981 6.78984 35.5011C4.94688 34.9192 3.00691 34.2402 1.16395 33.5612C0.775963 33.4642 0.48497 33.1732 0.193977 32.9792C0.193977 32.7852 0.193977 32.6882 0.193977 32.4942C0.48497 32.3002 0.872961 32.1062 1.16395 31.9122C1.26095 31.9122 1.35796 31.8152 1.35796 31.8152C5.14087 30.1663 9.11779 29.7783 13.1917 29.8753C22.3095 30.0693 31.4272 29.8753 40.642 29.9723C41.127 29.9723 41.612 30.2633 42.097 30.3603C42 32.0092 42 33.5612 42 35.2101ZM34.2402 33.4642C33.8522 33.4642 33.5612 33.4642 33.1732 33.4642C25.1224 33.4642 17.0716 33.4642 9.02077 33.4642C8.72978 33.4642 8.4388 33.4642 8.2448 33.4642C7.75981 33.4642 7.66282 33.6582 7.85682 34.1432C17.3626 34.1432 26.8684 34.1432 36.3741 34.1432C36.3741 33.1732 36.3741 32.3002 36.3741 31.4272C26.8684 31.4272 17.3626 31.4272 7.85682 31.4272C7.66282 32.2032 8.14779 32.1062 8.53578 32.1062C16.7806 32.1062 25.0254 32.1062 33.2702 32.1062C33.5612 32.1062 33.9492 32.1062 34.2402 32.1062C34.2402 32.5912 34.2402 32.9792 34.2402 33.4642ZM37.8291 34.1432C38.7991 34.1432 39.672 34.1432 40.545 34.1432C40.545 33.1732 40.545 32.3002 40.545 31.4272C39.575 31.4272 38.7021 31.4272 37.8291 31.4272C37.8291 32.3972 37.8291 33.2702 37.8291 34.1432ZM6.30485 31.7182C5.23787 32.1062 4.2679 32.3972 3.00693 32.7852C4.2679 33.1732 5.23787 33.5612 6.30485 33.8522C6.30485 33.1732 6.30485 32.4942 6.30485 31.7182Z" fill="#222222"/>
<path d="M42 27.1594C41.612 27.1594 41.127 27.1594 40.642 27.2564C40.642 18.6236 40.642 10.0878 40.642 1.45497C38.5081 1.45497 36.4711 1.45497 34.4342 1.45497C34.4342 3.00693 34.4342 4.55889 34.4342 6.30485C35.5982 6.30485 36.6651 6.30485 37.8291 6.30485C37.8291 6.78984 37.8291 7.27483 37.8291 7.75981C36.6651 7.75981 35.5982 7.75981 34.4342 7.75981C34.4342 9.60277 34.4342 11.4457 34.4342 13.2887C35.5982 13.2887 36.6651 13.2887 37.8291 13.2887C37.8291 13.7737 37.8291 14.1617 37.8291 14.6467C36.6651 14.6467 35.5982 14.6467 34.4342 14.6467C34.4342 16.5866 34.4342 18.3326 34.4342 20.2725C35.5982 20.2725 36.6651 20.2725 37.8291 20.2725C37.8291 20.7575 37.8291 21.1455 37.8291 21.6305C36.6651 21.6305 35.5982 21.6305 34.4342 21.6305C34.4342 23.5704 34.4342 25.3164 34.4342 27.1594C33.9492 27.1594 33.5612 27.1594 33.0762 27.1594C33.0762 26.8684 33.0762 26.5774 33.0762 26.2864C33.0762 17.9446 33.0762 9.60278 33.0762 1.35798C33.0762 0.872988 33.3672 0.484988 33.4642 0C36.3741 0 39.2841 0 42.097 0C42 9.02078 42 18.0416 42 27.1594Z" fill="#222222"/>
<path d="M0.0970001 37.6351C0.484991 37.6351 0.969973 37.7321 1.45496 37.7321C1.45496 38.6051 1.45496 39.4781 1.45496 40.448C3.78291 40.448 6.11083 40.448 8.43878 40.448C8.43878 39.575 8.43878 38.7021 8.43878 37.8291C8.92377 37.8291 9.31176 37.8291 9.89374 37.8291C9.89374 38.9931 9.89374 40.157 9.89374 41.418C9.89374 41.612 9.60276 41.806 9.50576 42C6.40183 42 3.2979 42 0.193974 42C0.0969764 40.448 0.0970001 39.0901 0.0970001 37.6351Z" fill="#222222"/>
<path d="M33.3672 41.903C33.2702 41.709 32.9792 41.418 32.9792 41.224C32.9792 40.06 32.9792 38.9931 32.9792 37.7321C33.4642 37.7321 33.8522 37.7321 34.3372 37.7321C34.3372 38.6051 34.3372 39.4781 34.3372 40.448C36.4711 40.448 38.5081 40.448 40.642 40.448C40.642 39.575 40.642 38.7021 40.642 37.7321C41.127 37.7321 41.612 37.6351 42.097 37.6351C42.097 39.0901 42.097 40.448 42.097 41.903C39.0901 41.903 36.1801 41.903 33.3672 41.903Z" fill="#222222"/>
</svg>
