<svg width="42" height="42" viewBox="0 0 42 42" fill="none" xmlns="http://www.w3.org/2000/svg">
<rect y="36" width="41" height="6" fill="#C88570"/>
<path d="M22.1652 0C22.942 0.103576 23.7189 0.207155 24.4957 0.310731C24.651 0.310731 24.8064 0.362509 24.9618 0.414297C25.4796 0.517873 25.7904 0.932189 25.6868 1.39828C25.5832 1.86437 25.1689 2.07151 24.6511 2.01973C23.3564 1.86436 22.0099 1.60543 20.7152 1.65722C13.0506 1.91616 7.19852 5.38595 3.67694 12.222C0.103579 19.2133 0.880388 26.0493 5.33415 32.5228C5.38594 32.6264 5.48951 32.73 5.5413 32.7817C6.16275 32.6782 6.73243 32.471 7.3021 32.471C8.85574 32.4192 10.2022 33.5068 10.6165 35.0086C11.0308 36.4587 10.4094 38.0641 9.11468 38.8409C7.81998 39.6695 6.11098 39.4624 4.97164 38.4266C3.83231 37.3909 3.52157 35.7337 4.2466 34.3872C4.40196 34.0764 4.35019 33.8693 4.19482 33.6104C1.76079 30.3477 0.362519 26.6708 0.0517911 22.5795C0.0517911 22.476 0 22.3206 0 22.217C0 21.3884 0 20.508 0 19.6794C0.155364 18.7472 0.258933 17.815 0.414297 16.8829C1.96793 8.54501 8.95931 1.709 17.349 0.310731C18.1258 0.207155 18.9026 0.103576 19.6794 0C20.4562 0 21.3366 0 22.1652 0ZM7.25031 34.1282C6.26634 34.1282 5.43773 34.9568 5.43773 35.9408C5.43773 36.9248 6.26634 37.7534 7.25031 37.7534C8.23428 37.7534 9.06288 36.9248 9.06288 35.9408C9.06288 34.9051 8.23428 34.0764 7.25031 34.1282Z" fill="#222222"/>
<path d="M19.5758 41.9482C18.799 41.8446 18.0222 41.7411 17.2454 41.6375C17.09 41.6375 16.9864 41.5857 16.8311 41.5857C16.3132 41.4821 16.0542 41.1196 16.106 40.6017C16.2096 40.1356 16.5721 39.9285 17.1418 39.9803C18.4883 40.1356 19.8348 40.3428 21.233 40.3428C28.8459 40.291 36.0444 35.4229 38.7891 28.328C41.3785 21.6474 40.5499 15.3292 36.4069 9.47718C36.3551 9.37361 36.3033 9.32182 36.2515 9.27003C36.2515 9.27003 36.1997 9.21825 36.2515 9.27003C35.6301 9.37361 35.0604 9.58077 34.4907 9.58077C32.9371 9.63255 31.5906 8.54501 31.1763 7.04316C30.762 5.5931 31.3835 3.98768 32.6782 3.21086C34.0247 2.38225 35.6819 2.53761 36.8212 3.62516C37.9605 4.66091 38.2713 6.31812 37.5462 7.66461C37.3909 7.97533 37.4426 8.18249 37.6498 8.44142C40.0838 11.7041 41.4821 15.381 41.7928 19.4723C41.7928 19.5758 41.8446 19.7312 41.8446 19.8348C41.8446 20.6634 41.8446 21.5438 41.8446 22.3724C41.8446 22.476 41.7928 22.5795 41.7928 22.6831C41.6375 23.6671 41.5857 24.651 41.3785 25.5832C39.7213 33.7139 32.73 40.3946 24.5475 41.6893C23.7706 41.7928 22.9938 41.8964 22.217 42C21.3366 41.9482 20.4562 41.9482 19.5758 41.9482ZM34.4907 7.87177C35.4747 7.87177 36.3033 7.09494 36.3033 6.11097C36.3033 5.127 35.4747 4.29839 34.4907 4.29839C33.5068 4.29839 32.6782 5.127 32.6782 6.11097C32.6782 7.04315 33.455 7.87177 34.4907 7.87177Z" fill="#222222"/>
<path d="M32.1603 27.5512C32.4192 27.8101 32.7817 28.1208 33.0925 28.4833C33.5586 28.9494 33.5586 29.3638 33.0925 29.8816C31.9531 31.021 30.8138 32.1603 29.7263 33.2478C29.2602 33.7139 28.7941 33.7139 28.328 33.2478C28.0173 32.9371 27.7065 32.6264 27.3958 32.3157C27.3958 32.3157 27.344 32.3157 27.3958 32.3157C26.36 32.73 25.4279 33.0925 24.4957 33.455C24.3921 33.5068 24.2885 33.6621 24.2367 33.8175C24.1849 34.2318 24.2367 34.6461 24.2367 35.1122C24.2367 35.6301 23.926 35.9408 23.4081 35.9408C21.7509 35.9408 20.0419 35.9408 18.3847 35.9408C17.815 35.9408 17.5561 35.6301 17.5043 35.0604C17.5043 34.6461 17.5043 34.2318 17.5043 33.8175C17.5043 33.6103 17.4525 33.5068 17.2454 33.455C16.3132 33.0925 15.381 32.73 14.3452 32.3157C14.0863 32.5746 13.7756 32.9371 13.4649 33.2478C12.9988 33.7139 12.5327 33.7139 12.0666 33.2478C10.9272 32.1085 9.78791 30.9692 8.64857 29.8298C8.18248 29.3637 8.18248 28.9494 8.64857 28.4833C9.01109 28.1208 9.32183 27.8101 9.63255 27.5512C9.21825 26.4636 8.85573 25.5314 8.44142 24.5475C8.38964 24.4439 8.23427 24.3403 8.13069 24.3403C7.71639 24.3403 7.30209 24.3403 6.88779 24.3403C6.31812 24.3403 6.0074 24.0296 6.0074 23.4599C6.0074 21.8027 6.0074 20.1455 6.0074 18.4883C6.0074 17.9186 6.31812 17.6079 6.88779 17.6079C7.30209 17.6079 7.71639 17.6079 8.13069 17.6079C8.23427 17.6079 8.44143 17.5043 8.49321 17.4007C8.85573 16.4686 9.27003 15.4846 9.68433 14.4488C9.42539 14.1899 9.06288 13.8792 8.70036 13.5684C8.23427 13.1023 8.23427 12.688 8.70036 12.2219C9.8397 11.0826 10.979 9.94327 12.1184 8.80394C12.5845 8.33785 12.9988 8.33785 13.5166 8.80394C13.7756 9.06288 14.0345 9.37361 14.3452 9.58076C14.4488 9.63255 14.656 9.68434 14.7596 9.63255C15.6399 9.27003 16.5203 8.90752 17.349 8.545C17.4525 8.49321 17.6079 8.33785 17.6079 8.23427C17.6597 7.81997 17.6079 7.40566 17.6079 6.93957C17.6079 6.42169 17.9186 6.11096 18.4365 6.11096C20.0937 6.11096 21.8027 6.11096 23.4599 6.11096C24.0296 6.11096 24.2885 6.4217 24.3403 6.99136C24.3403 7.40567 24.3403 7.81997 24.3403 8.23427C24.3403 8.33785 24.4439 8.545 24.5475 8.545C25.4797 8.90752 26.4636 9.32181 27.5512 9.73612C27.8101 9.47718 28.1208 9.11467 28.4316 8.80394C28.8977 8.33785 29.312 8.33785 29.7781 8.80394C30.9174 9.94327 32.0567 11.0826 33.1961 12.2219C33.6621 12.688 33.6621 13.1023 33.1961 13.6202C32.8853 13.9309 32.5228 14.2417 32.2639 14.5006C32.6782 15.5882 33.0407 16.5203 33.455 17.5043C33.5068 17.6079 33.6621 17.7115 33.7657 17.7115C34.18 17.7115 34.5943 17.7115 35.0086 17.7115C35.5783 17.7115 35.889 18.0222 35.889 18.5919C35.889 20.2491 35.889 21.9063 35.889 23.5635C35.889 24.1332 35.5783 24.4439 34.9568 24.4439C34.5425 24.4439 34.1282 24.4439 33.7139 24.4439C33.6104 24.4439 33.455 24.5475 33.4032 24.651C32.9371 25.5314 32.5746 26.5154 32.1603 27.5512ZM34.1282 19.2651C33.8693 19.2651 33.6621 19.2651 33.455 19.2651C33.2478 19.2651 33.0407 19.2651 32.8335 19.2651C32.3157 19.2651 32.0049 19.0579 31.9014 18.5401C31.5906 17.2454 31.1245 16.0542 30.3995 14.9149C30.1406 14.5006 30.1924 14.1381 30.5549 13.7756C30.8656 13.4649 31.1763 13.2059 31.487 12.947C30.6067 12.0666 29.8298 11.2898 28.9494 10.4094C28.6905 10.7201 28.4316 11.0308 28.1208 11.2898C27.7065 11.7041 27.3958 11.7559 26.8779 11.4451C25.7904 10.7719 24.5993 10.3058 23.3564 9.99506C22.7867 9.83969 22.5795 9.58076 22.5795 9.01109C22.5795 8.59679 22.5795 8.18249 22.5795 7.76818C21.3884 7.76818 20.3009 7.76818 19.1615 7.76818C19.1615 7.81997 19.1097 7.81998 19.1097 7.87176C19.1097 8.23428 19.1097 8.64857 19.1097 9.01109C19.1097 9.58076 18.9026 9.83969 18.3847 9.99506C17.09 10.3058 15.8989 10.7719 14.8113 11.4969C14.3453 11.7559 14.0345 11.7558 13.6202 11.3415C13.3095 11.0308 13.0505 10.7201 12.7916 10.4612C11.9112 11.3416 11.1344 12.1702 10.254 12.9988C10.5129 13.2577 10.8237 13.5166 11.1344 13.8274C11.5487 14.2417 11.5487 14.5524 11.2898 15.0185C10.6165 16.106 10.1504 17.2454 9.8397 18.4883C9.68434 19.1097 9.4254 19.3169 8.80395 19.3169C8.38964 19.3169 8.02712 19.3169 7.61281 19.3169C7.61281 20.508 7.61281 21.6473 7.61281 22.7867C8.0789 22.7867 8.49321 22.7867 8.90751 22.7867C9.42539 22.7867 9.68434 22.9938 9.8397 23.5117C10.1504 24.8064 10.6165 25.9975 11.3415 27.1369C11.6005 27.603 11.6005 27.9137 11.1862 28.328C10.8755 28.6387 10.5647 28.8976 10.254 29.1566C11.1344 30.037 11.963 30.8138 12.7916 31.6942C13.0505 31.4353 13.3095 31.1245 13.6202 30.8138C14.0345 30.3995 14.3452 30.3477 14.8631 30.6584C15.9507 31.3317 17.09 31.7978 18.3329 32.1085C18.9544 32.2639 19.1615 32.5228 19.1615 33.1961C19.1615 33.6104 19.1615 33.9729 19.1615 34.3354C20.3527 34.3354 21.492 34.3354 22.5795 34.3354C22.5795 34.2836 22.6313 34.2318 22.6313 34.2318C22.6313 33.8693 22.6313 33.5068 22.6313 33.1443C22.6313 32.5228 22.8385 32.2639 23.4081 32.1603C24.651 31.8496 25.8422 31.3835 26.9297 30.7102C27.4476 30.3995 27.7583 30.4513 28.1726 30.8656C28.4834 31.1763 28.7423 31.487 28.9494 31.746C29.8298 30.8656 30.6067 30.0888 31.487 29.2084C31.1763 28.9494 30.8656 28.6387 30.6067 28.3798C30.2441 28.0173 30.1924 27.6547 30.5031 27.1887C31.1763 26.1011 31.6942 24.91 32.0049 23.6153C32.1085 23.0974 32.4192 22.8903 32.9371 22.8903C33.3514 22.8903 33.7657 22.8903 34.2318 22.8903C34.1282 21.5438 34.1282 20.4044 34.1282 19.2651Z" fill="#222222"/>
<path d="M28.4316 3.10729C27.9655 3.10729 27.603 2.69298 27.6547 2.22689C27.6547 1.81259 28.0691 1.45007 28.4834 1.45007C28.9494 1.45007 29.312 1.81259 29.2602 2.27868C29.2084 2.74477 28.8459 3.10729 28.4316 3.10729Z" fill="#222222"/>
<path d="M14.1899 39.7214C14.1899 40.1875 13.8274 40.4982 13.3613 40.4982C12.8952 40.4982 12.5845 40.1357 12.5845 39.6696C12.5845 39.2035 12.9988 38.841 13.4649 38.8928C13.8792 38.9445 14.1899 39.3071 14.1899 39.7214Z" fill="#222222"/>
<path d="M20.8705 14.1899C24.5993 14.1899 27.6547 17.2454 27.6547 20.9742C27.6547 24.7029 24.5993 27.7584 20.8705 27.7584C17.1418 27.7584 14.0863 24.7029 14.0863 20.9742C14.0863 17.2454 17.1418 14.1899 20.8705 14.1899ZM25.9975 20.9742C25.9975 18.1776 23.6671 15.8472 20.8705 15.8472C18.074 15.8472 15.7435 18.1776 15.7435 20.9742C15.7435 23.7707 18.074 26.1012 20.8705 26.1012C23.7189 26.1012 26.0493 23.7707 25.9975 20.9742Z" fill="#222222"/>
</svg>
