<svg width="32" height="43" viewBox="0 0 32 43" fill="none" xmlns="http://www.w3.org/2000/svg">
<path d="M11.0096 0.101402C11.7194 0.456312 12.4799 0.76052 13.0884 1.21683C15.4206 3.04209 16.2826 5.47576 15.8262 8.36574C15.522 10.2417 14.6601 11.7627 13.2405 13.0303C13.0884 13.1824 12.987 13.4359 12.987 13.588C12.987 18.5567 12.987 23.5255 12.987 28.4435C12.987 28.7984 13.1898 28.9505 13.4433 29.1533C16.2826 31.6884 16.8403 36.0487 14.7108 39.1922C13.8489 40.4598 12.7335 41.3724 11.2631 41.8287C10.5026 42.0822 9.99557 41.7273 9.94487 40.9161C9.94487 39.8006 9.94487 38.7359 9.94487 37.6205C9.94487 37.4684 9.94487 37.3163 9.94487 37.1642C8.62664 37.1642 7.3591 37.1642 6.04086 37.1642C6.04086 37.3163 6.04086 37.4684 6.04086 37.6205C6.04086 38.7359 6.04086 39.8006 6.04086 40.9161C6.04086 41.778 5.63525 42.0822 4.82403 41.778C2.33966 40.9161 0.767913 39.1922 0.210197 36.6571C-0.448922 33.7165 0.463703 31.1814 2.64387 29.1026C2.89737 28.8491 2.99878 28.5956 2.99878 28.2407C2.99878 23.4241 2.99878 18.5567 2.99878 13.7401C2.99878 13.3345 2.89737 13.081 2.59316 12.8275C-0.601026 9.98818 -0.854531 5.01944 1.98475 1.92665C2.69457 1.11543 3.55649 0.557716 4.57052 0.202806C4.67192 0.152104 4.82403 0.101402 4.92543 0.0507007C5.07753 0.0507007 5.17894 0.0507007 5.33104 0.0507007C5.83806 0.253506 6.04086 0.659118 5.99016 1.16613C5.93946 2.12946 5.99016 3.09279 5.99016 4.00541C5.99016 4.25892 5.99016 4.51243 5.99016 4.76593C7.3084 4.76593 8.57594 4.76593 9.89417 4.76593C9.89417 3.5491 9.89417 2.33227 9.89417 1.11543C9.89417 0.557715 10.0463 0.202806 10.604 0C10.7561 0.101403 10.9082 0.101402 11.0096 0.101402ZM4.31701 2.33227C4.21561 2.38297 4.16491 2.43367 4.11421 2.43367C2.18755 3.75191 1.27493 6.38838 1.98475 8.72065C2.39036 10.0389 3.10018 11.1543 4.21561 11.9655C4.51982 12.219 4.77333 12.4726 4.77333 12.9289C4.77333 18.3032 4.77333 23.7283 4.77333 29.1026C4.77333 29.4575 4.62122 29.7617 4.36772 29.9646C4.06351 30.2181 3.7593 30.4716 3.45509 30.7758C1.52843 32.8038 1.27493 35.9473 2.79597 38.2289C3.20158 38.8373 3.6579 39.2936 4.36772 39.6992C4.36772 38.5838 4.36772 37.5191 4.36772 36.505C4.36772 35.7445 4.72262 35.4403 5.43244 35.4403C7.15629 35.4403 8.88015 35.4403 10.604 35.4403C11.3645 35.4403 11.6687 35.7952 11.7194 36.5557C11.7194 37.4684 11.7194 38.381 11.7194 39.2936C11.7194 39.4457 11.7194 39.5471 11.7701 39.8006C12.1757 39.395 12.5814 39.1415 12.8856 38.7866C15.0657 36.2515 14.7108 32.3475 12.0236 30.2181C11.5166 29.8124 11.3138 29.3561 11.3138 28.697C11.3138 23.5762 11.3138 18.506 11.3138 13.3852C11.3138 12.6754 11.5166 12.219 12.0743 11.8134C14.508 9.88678 15.015 6.28698 13.2912 3.75191C12.8856 3.19419 12.4292 2.68718 11.7701 2.33227C11.7701 3.4477 11.7701 4.46173 11.7701 5.47576C11.7701 6.28698 11.4659 6.59119 10.604 6.59119C8.93085 6.59119 7.2577 6.59119 5.58455 6.59119C4.67192 6.59119 4.36772 6.33768 4.36772 5.37435C4.31701 4.41102 4.31701 3.397 4.31701 2.33227Z" fill="#222222"/>
<path d="M23.8878 42.0822C23.0258 41.8287 22.2653 41.4231 21.9104 40.6119C21.7076 40.1555 21.6062 39.6485 21.6062 39.1922C21.6062 33.5136 21.6062 27.7844 21.6062 22.1058C21.6062 20.7369 22.2146 19.8243 23.5329 19.3172C23.7864 19.2158 23.7357 19.0637 23.7357 18.8609C23.7357 15.9709 23.685 13.081 23.7357 10.191C23.7357 9.22766 23.5836 8.36573 22.9751 7.60521C22.6709 7.2503 22.4174 6.84469 22.2653 6.43908C22.1639 6.18557 22.1132 5.83066 22.2146 5.57715C22.823 3.95471 23.5329 2.38296 24.192 0.760517C24.2934 0.50701 24.5976 0.354905 24.8004 0.1521C26.1186 0.1521 27.4369 0.1521 28.7551 0.1521C28.9579 0.456308 29.2621 0.760516 29.4142 1.06473C30.0226 2.43366 30.5804 3.8533 31.1888 5.22224C31.4423 5.77996 31.4423 6.23627 31.0874 6.74329C30.6818 7.301 30.3268 7.90942 30.0226 8.46714C29.9212 8.66994 29.8198 8.97415 29.8198 9.22766C29.8198 10.698 29.8198 12.1683 29.8198 13.6387C29.8198 15.3625 29.8198 17.1371 29.8198 18.8609C29.8198 19.0637 29.7691 19.2158 30.0733 19.3172C31.3916 19.8243 32 20.6862 32 22.1058C32 27.7844 32 33.4629 32 39.1415C32 39.6485 31.8479 40.1555 31.6958 40.6119C31.3409 41.4738 30.5804 41.8794 29.7184 42.0822C27.6397 42.0822 25.7637 42.0822 23.8878 42.0822ZM23.2794 30.573C23.2794 33.4122 23.2794 36.3022 23.2794 39.1415C23.2794 39.9527 23.685 40.3583 24.4962 40.3583C25.9665 40.3583 27.4369 40.3583 28.8565 40.3583C29.7184 40.3583 30.124 39.9527 30.124 39.0908C30.124 33.4629 30.124 27.7844 30.124 22.1565C30.124 21.2946 29.7184 20.889 28.8565 20.889C27.4369 20.889 26.0172 20.889 24.5976 20.889C23.6343 20.889 23.2794 21.2439 23.2794 22.2072C23.2794 24.9958 23.2794 27.7844 23.2794 30.573ZM27.9946 19.1651C27.9946 18.9623 27.9946 18.8102 27.9946 18.6074C27.9946 15.3625 27.9946 12.0669 27.9946 8.82205C27.9946 8.46713 28.096 8.11223 28.2988 7.80802C28.603 7.1996 29.0086 6.64188 29.3635 6.03347C29.4142 5.88136 29.4649 5.67856 29.4142 5.57715C28.9579 4.41102 28.4509 3.24489 27.9439 2.07875C27.8932 1.97735 27.7411 1.82525 27.589 1.82525C26.9806 1.82525 26.4228 1.82525 25.8144 1.82525C25.5609 1.82525 25.5102 1.92665 25.4088 2.12946C24.9525 3.29559 24.4455 4.41102 23.9892 5.57715C23.9385 5.72926 23.9385 5.93206 24.0399 6.08417C24.3948 6.69259 24.8004 7.2503 25.1046 7.80802C25.2567 8.11223 25.4088 8.46713 25.4088 8.82205C25.4088 12.1176 25.4088 15.3625 25.4088 18.6581C25.4088 18.8102 25.4088 18.9623 25.4088 19.1144C26.3214 19.1651 27.1327 19.1651 27.9946 19.1651Z" fill="#222222"/>
</svg>
