<svg width="42" height="42" viewBox="0 0 42 42" fill="none" xmlns="http://www.w3.org/2000/svg">
<rect y="36" width="42" height="6" fill="#C88570"/>
<path d="M0 42C0 27.9739 0 14.0261 0 0C14.0261 0 27.9739 0 42 0C42 14.0261 42 27.9739 42 42C28.0522 42 14.0261 42 0 42ZM40.5895 7.05224C27.5037 7.05224 14.4963 7.05224 1.48881 7.05224C1.48881 18.2575 1.48881 29.3843 1.48881 40.5112C14.5746 40.5112 27.5821 40.5112 40.5895 40.5112C40.5895 29.3843 40.5895 18.2575 40.5895 7.05224ZM1.48881 1.48881C1.48881 2.89926 1.48881 4.23135 1.48881 5.56344C14.5746 5.56344 27.5821 5.56344 40.5895 5.56344C40.5895 4.15299 40.5895 2.8209 40.5895 1.48881C27.5037 1.48881 14.4963 1.48881 1.48881 1.48881Z" fill="#222222"/>
<path d="M4.23135 9.87317C9.79479 9.87317 15.3582 9.87317 20.9217 9.87317C20.9217 19.1978 20.9217 28.4441 20.9217 37.7687C15.3582 37.7687 9.79479 37.7687 4.23135 37.7687C4.23135 28.4441 4.23135 19.1978 4.23135 9.87317ZM5.6418 11.2053C5.6418 19.6679 5.6418 27.9739 5.6418 36.3582C10.2649 36.3582 14.8881 36.3582 19.5112 36.3582C19.5112 27.9739 19.5112 19.5896 19.5112 11.2053C14.8881 11.2053 10.3433 11.2053 5.6418 11.2053Z" fill="#222222"/>
<path d="M23.8209 9.87317C28.444 9.87317 33.0672 9.87317 37.7687 9.87317C37.7687 14.0262 37.7687 18.1791 37.7687 22.4105C33.1455 22.4105 28.5224 22.4105 23.8209 22.4105C23.8209 18.1791 23.8209 14.1045 23.8209 9.87317ZM36.3582 21C36.3582 17.709 36.3582 14.5747 36.3582 11.2836C32.6754 11.2836 28.9926 11.2836 25.2314 11.2836C25.2314 14.5747 25.2314 17.7873 25.2314 21C28.9926 21 32.6754 21 36.3582 21Z" fill="#222222"/>
<path d="M23.8209 25.3097C28.444 25.3097 33.0672 25.3097 37.6903 25.3097C37.6903 29.4627 37.6903 33.6157 37.6903 37.7686C33.0672 37.7686 28.444 37.7686 23.8209 37.7686C23.8209 33.6157 23.8209 29.4627 23.8209 25.3097ZM36.4366 26.6418C32.6754 26.6418 28.9925 26.6418 25.3097 26.6418C25.3097 29.9328 25.3097 33.1455 25.3097 36.3582C29.0709 36.3582 32.7537 36.3582 36.4366 36.3582C36.4366 33.1455 36.4366 29.9328 36.4366 26.6418Z" fill="#222222"/>
<path d="M2.82089 4.15297C2.82089 3.68282 2.82089 3.29102 2.82089 2.89923C3.29104 2.89923 3.68284 2.89923 4.07463 2.89923C4.38806 4.23132 4.3097 4.30968 2.82089 4.15297Z" fill="#222222"/>
<path d="M6.97389 2.82092C6.97389 3.29107 6.97389 3.68286 6.97389 4.15301C6.50374 4.15301 6.11195 4.15301 5.6418 4.23137C5.6418 3.76122 5.6418 3.29107 5.6418 2.82092C6.11195 2.82092 6.50374 2.82092 6.97389 2.82092Z" fill="#222222"/>
<path d="M39.1791 4.07464C37.7687 4.38807 37.6903 4.30972 37.847 2.82092C38.0037 2.82092 38.2388 2.74255 38.4739 2.74255C38.709 2.74255 38.8657 2.74255 39.1791 2.74255C39.1791 2.97763 39.2575 3.21271 39.2575 3.44778C39.2575 3.68286 39.1791 3.91792 39.1791 4.07464Z" fill="#222222"/>
<path d="M9.79478 4.15301C9.32463 4.15301 8.93284 4.15301 8.46269 4.15301C8.46269 3.76122 8.46269 3.29107 8.46269 2.82092C8.85448 2.82092 9.32463 2.82092 9.79478 2.82092C9.79478 3.29107 9.79478 3.68286 9.79478 4.15301Z" fill="#222222"/>
</svg>
