<svg width="50" height="42" viewBox="0 0 50 42" fill="none" xmlns="http://www.w3.org/2000/svg">
<rect x="1" y="35" width="47" height="7" fill="#C88570"/>
<path d="M16.5659 42C15.8404 41.7562 14.994 41.6343 14.3289 41.2685C12.636 40.2932 11.8501 38.7083 12.0919 36.6967C12.3337 34.8679 13.3615 33.5878 15.1149 32.9173C15.9613 32.6125 16.8682 32.6125 17.7751 32.7954C18.7424 30.9666 19.7098 29.0769 20.6771 27.1872C19.9516 27.1872 19.2866 27.1872 18.682 27.1872C17.7751 27.1872 17.4728 27.0044 17.2309 26.1509C14.6917 18.3483 12.1524 10.4848 9.61306 2.68214C9.49214 2.25544 9.31076 2.07257 8.82708 2.13353C6.34825 2.13353 3.86941 2.13353 1.33011 2.13353C0.665053 2.13353 0.241838 1.95066 0 1.28012C0 1.09725 0 0.975319 0 0.792445C0.241838 0.36574 0.544134 0.121916 0.967351 0C4.05078 0 7.07376 0 10.1572 0C10.7618 0.182874 11.0641 0.609575 11.2455 1.1582C11.7896 2.98693 12.4547 4.81568 12.9988 6.70537C13.1197 7.19303 13.3615 7.25399 13.8452 7.25399C25.4534 7.25399 37.0617 7.25399 48.6094 7.25399C49.214 7.25399 49.6977 7.37591 50 7.98549C50 8.16836 50 8.35124 50 8.59507C49.9395 8.65603 49.9395 8.71698 49.8791 8.77794C47.4002 14.5689 44.9214 20.3599 42.4426 26.1509C42.1403 26.8824 41.6566 27.1872 40.8706 27.1872C35.0665 27.1872 29.2019 27.1872 23.3978 27.1872C23.0351 27.1872 22.8537 27.3091 22.6723 27.6139C22.0072 29.016 21.2817 30.357 20.5562 31.6981C20.1935 32.3687 19.8307 33.0392 19.5889 33.5878C20.0726 34.3803 20.4958 35.1118 20.8585 35.7823C21.0399 36.0871 21.1608 36.209 21.5236 36.209C27.2068 36.209 32.89 36.209 38.5732 36.209C38.9359 36.209 39.1173 36.1481 39.2382 35.7823C40.0242 33.4049 42.5635 32.1248 44.9214 32.8563C46.977 33.5268 48.3676 35.5385 48.1258 37.611C47.8839 39.8055 46.2515 41.6343 44.2563 41.8171C41.8984 42.061 39.9033 40.8418 39.2382 38.7083C39.1173 38.4035 38.9964 38.2816 38.6941 38.2816C32.9504 38.2816 27.2068 38.2816 21.5236 38.2816C21.2213 38.2816 21.1004 38.4035 20.9794 38.6473C20.4353 40.2932 19.347 41.2685 17.7146 41.6952C17.3519 41.7562 16.9891 41.8171 16.6868 41.8781C16.6868 42 16.6264 42 16.5659 42ZM28.9601 18.2874C28.8996 18.2874 28.8392 18.2264 28.7787 18.2264C27.1463 18.2264 25.4534 18.2264 23.821 18.2264C23.6397 18.2264 23.4583 18.4093 23.3374 18.5922C22.4305 20.6038 21.584 22.6154 20.7376 24.627C20.6771 24.7489 20.6167 24.8708 20.5562 25.0537C20.6771 25.0537 20.7376 25.0537 20.8585 25.0537C22.4909 25.0537 24.0629 25.0537 25.6953 25.0537C25.9976 25.0537 26.1185 24.9318 26.2394 24.688C27.0859 22.6763 27.9927 20.6647 28.8392 18.6531C28.8392 18.5922 28.8996 18.4093 28.9601 18.2874ZM28.295 25.1147C30.0484 25.1147 31.6808 25.1147 33.3736 25.1147C33.7364 25.1147 33.8573 24.9927 33.9782 24.688C34.8247 22.6763 35.6711 20.6647 36.5175 18.7141C36.578 18.5922 36.6385 18.4093 36.6989 18.2264C34.8851 18.2264 33.1923 18.2264 31.4994 18.2264C31.3785 18.2264 31.1366 18.4093 31.0762 18.5922C30.2297 20.5428 29.3833 22.5544 28.5369 24.566C28.4764 24.7489 28.416 24.8708 28.295 25.1147ZM32.8295 9.32655C32.5877 9.32655 32.4667 9.32655 32.3458 9.32655C30.8343 9.32655 29.2624 9.32655 27.7509 9.32655C27.4486 9.32655 27.2672 9.44848 27.1463 9.75327C26.2999 11.7649 25.4534 13.7765 24.607 15.7881C24.5466 15.91 24.4861 16.0319 24.4256 16.2148C26.179 16.2148 27.9323 16.2148 29.6251 16.2148C29.7461 16.2148 29.9274 16.0319 29.9879 15.8491C30.4716 14.6909 30.9553 13.5936 31.4389 12.4354C31.9226 11.3991 32.3458 10.4238 32.8295 9.32655ZM25.0907 9.32655C24.8488 9.32655 24.7279 9.32655 24.607 9.32655C23.0955 9.32655 21.5236 9.32655 20.0121 9.32655C19.7098 9.32655 19.5284 9.44848 19.4075 9.75327C18.5611 11.7649 17.7146 13.7765 16.8682 15.7881C16.8077 15.91 16.7473 16.0319 16.6868 16.2148C18.4401 16.2148 20.1935 16.2148 21.8863 16.2148C22.0073 16.2148 22.1886 16.0319 22.2491 15.8491C22.6118 14.9956 22.9746 14.1422 23.3374 13.3498C23.942 12.0087 24.4861 10.7286 25.0907 9.32655ZM40.5683 9.32655C38.7545 9.32655 37.0012 9.32655 35.3083 9.32655C35.1874 9.32655 35.006 9.50943 34.9456 9.6923C34.0387 11.7039 33.1923 13.7765 32.3458 15.7881C32.2854 15.91 32.2854 16.0319 32.2249 16.1538C33.9782 16.1538 35.6711 16.1538 37.4244 16.1538C37.5453 16.1538 37.7872 15.971 37.8476 15.7881C38.3313 14.6909 38.815 13.5936 39.2987 12.4354C39.601 11.4601 40.0846 10.4238 40.5683 9.32655ZM43.7122 18.2264C42.2007 18.2264 40.8102 18.2264 39.3591 18.2264C39.0568 18.2264 38.8755 18.3483 38.7545 18.6531C37.9081 20.6647 37.0617 22.6763 36.1548 24.688C36.0943 24.8099 36.0339 24.9318 36.0339 25.1147C37.5453 25.1147 38.9964 25.1147 40.5079 25.1147C40.6288 25.1147 40.8706 24.9318 40.9311 24.7489C41.3543 23.7736 41.7775 22.7373 42.2612 21.701C42.6844 20.6038 43.1681 19.4456 43.7122 18.2264ZM39.8428 16.1538C41.3543 16.1538 42.8053 16.1538 44.1959 16.1538C44.4982 16.1538 44.6191 16.0319 44.74 15.7881C45.526 13.8984 46.3724 11.9478 47.1584 10.0581C47.2793 9.81422 47.3398 9.63134 47.4607 9.32655C47.2189 9.32655 47.0979 9.32655 46.9166 9.32655C45.8888 9.32655 44.8005 9.38751 43.7727 9.32655C42.9867 9.2656 42.5635 9.50943 42.2612 10.3019C41.5961 12.2525 40.6892 14.1422 39.8428 16.1538ZM46.1911 37.3063C46.1911 35.9042 45.1028 34.746 43.6518 34.685C42.2612 34.685 41.1125 35.8433 41.052 37.2453C41.052 38.7083 42.2007 39.8665 43.5913 39.8665C45.0423 39.8665 46.1911 38.7083 46.1911 37.3063ZM14.1475 37.2453C14.0871 38.6473 15.2358 39.8665 16.6868 39.8665C18.0774 39.8665 19.2261 38.7083 19.2866 37.3063C19.2866 35.9042 18.1983 34.746 16.7473 34.685C15.3567 34.685 14.1475 35.7823 14.1475 37.2453ZM18.7424 24.0784C19.5889 22.0668 20.4353 20.1771 21.2213 18.2264C19.7098 18.2264 18.3192 18.2264 16.8077 18.2264C17.4728 20.1771 18.0774 22.0668 18.7424 24.0784ZM15.4172 13.8375C16.0822 12.2525 16.6868 10.8505 17.3519 9.32655C16.2031 9.32655 15.1149 9.32655 13.9661 9.32655C14.4498 10.8505 14.9335 12.2525 15.4172 13.8375Z" fill="#222222"/>
</svg>
