<svg width="90" height="40" viewBox="0 0 90 40" fill="none" xmlns="http://www.w3.org/2000/svg">
<rect x="4" y="31" width="85" height="6" fill="#C88570"/>
<path d="M0 4.49243C0.458411 3.39224 1.00851 2.29205 2.38374 1.92533C5.04253 1.28355 6.50945 2.20037 6.96786 4.85916C7.51795 8.2514 8.06804 11.6436 8.70981 15.0359C9.35159 18.3365 9.99337 21.637 10.6351 24.8459C10.7268 25.1209 10.8185 25.396 10.9102 25.7627C11.827 24.1124 12.6522 22.4622 13.4773 20.9036C15.6777 16.7779 17.7864 12.6522 20.0784 8.52645C20.9953 6.87617 22.5538 6.32607 24.0208 6.96785C25.396 7.60963 25.7627 8.89318 26.0378 10.1767C26.8629 14.6692 27.9631 19.0699 29.7967 23.2873C29.8884 22.5538 29.9801 21.8204 30.1635 21.0869C30.8969 17.1446 31.447 13.1106 32.3639 9.16823C32.9139 6.41776 33.9224 3.75897 35.481 1.37523C35.8478 0.82514 36.5812 0.458411 37.223 0C37.8648 0 38.5066 0 39.1483 0V0.0916808C41.9905 1.74196 42.1738 2.84215 40.8903 5.95935C39.6984 8.98486 38.8733 12.1021 38.1398 15.2193C37.4064 18.5198 36.948 21.9121 36.5812 25.3043C36.3062 28.6049 36.2145 31.9054 36.2145 35.2977C36.2145 36.9479 35.7561 38.2315 34.2892 39.0566C33.6474 39.0566 33.0056 39.0566 32.3639 39.0566C31.3553 38.1398 30.2551 37.3147 29.3383 36.3062C26.3128 32.9139 24.4792 28.8799 22.9206 24.7542C22.4622 23.4707 22.0037 22.0954 21.5453 20.7202C21.362 21.0869 21.2703 21.2703 21.1786 21.4536C18.9782 25.8544 16.7779 30.2551 14.4858 34.5642C13.4773 36.4895 12.1937 38.2315 10.1767 39.24C9.81001 39.24 9.44329 39.24 8.98488 39.24C8.06806 38.5065 7.2429 37.6814 6.87617 36.4895C6.05103 33.6474 5.04254 30.8969 4.40076 27.9631C3.48394 24.2958 2.75048 20.5368 2.10871 16.8695C1.6503 14.4858 1.28355 12.1021 0.916823 9.81C0.641776 8.43477 0.36674 7.15121 0.183376 5.77598C1.11889e-05 5.22589 0 4.85916 0 4.49243ZM3.66729 3.30056C2.10869 3.30056 1.37525 4.1257 1.6503 5.59262C1.92534 7.2429 2.20039 8.89318 2.47543 10.5435C3.57562 17.5113 4.85918 24.4792 6.78451 31.2636C7.24292 33.0056 7.88469 34.7476 8.52647 36.4895C9.07656 37.8648 9.71832 37.9565 10.6351 36.7646C11.827 35.2977 13.0189 33.8307 13.844 32.0888C15.9527 28.1465 17.878 24.2041 19.8034 20.2618C20.1701 19.5283 20.7202 19.0699 21.362 19.2533C21.9121 19.4366 22.4622 19.895 22.9206 20.3535C23.1039 20.5368 23.1039 20.9035 23.1956 21.2703C24.5709 25.5793 26.2211 29.7967 28.8799 33.5557C29.8884 34.9309 31.0803 36.1228 32.2722 37.3147C33.0973 38.0481 34.0141 37.5897 34.3808 36.5812C34.4725 36.2145 34.4725 35.8478 34.4725 35.5727C34.5642 32.4555 34.5642 29.3383 34.9309 26.2211C35.2977 22.6455 35.7561 19.1616 36.3979 15.6777C37.0396 11.7353 38.0482 7.97636 39.7901 4.40075C40.3402 3.30056 39.7901 2.38374 38.5982 1.83364C37.6814 1.46692 36.8563 1.74196 36.3062 2.75047C33.464 7.97636 32.6389 13.7523 31.7221 19.5283C31.5387 20.7202 31.447 22.0037 31.2637 23.2873C31.172 24.2041 30.4385 25.0293 29.6134 25.0293C28.6966 25.0293 28.1465 24.5708 27.8714 23.654C26.7712 19.5283 25.671 15.4943 24.4792 11.3686C24.2958 10.5435 24.0208 9.71832 23.654 8.98486C23.2873 8.2514 22.4622 8.15972 21.8204 8.70981C21.2703 9.16823 20.9036 9.81 20.5368 10.3601C18.2448 14.7608 15.9527 19.1616 13.569 23.5623C13.1106 24.4792 12.6522 25.3043 12.1938 26.2211C11.827 26.9546 11.2769 27.413 10.4518 27.3213C9.62666 27.2296 9.16824 26.7712 8.98488 25.9461C8.8932 25.396 8.70984 24.8459 8.61815 24.3875C7.70133 19.62 6.78451 14.9442 5.86769 10.1767C5.50096 8.43477 5.31757 6.78449 5.04252 5.04252C5.22589 3.75897 4.6758 3.30056 3.66729 3.30056Z" fill="#222222"/>
<path d="M89.3902 18.6115C89.2985 19.4367 89.1151 20.2618 89.0235 21.0869C88.4734 24.5709 87.0981 27.7797 84.8978 30.6219C83.3392 32.6389 81.4138 34.0141 78.8467 34.5642C74.8127 35.481 70.0452 33.7391 67.9365 29.7051C66.928 27.6881 66.2863 25.4877 66.1029 23.1956C65.8279 19.2533 66.5613 15.586 68.3033 12.1021C69.9535 8.80151 72.0623 5.86768 75.8212 4.85917C79.5802 3.75899 83.0641 4.49245 85.8146 7.3346C87.9233 9.44329 88.9318 12.1938 89.2068 15.2193C89.2068 15.4026 89.2985 15.586 89.3902 15.7694C89.3902 16.6862 89.3902 17.603 89.3902 18.6115ZM78.2967 5.95936C76.6464 5.776 74.9961 6.50946 73.5292 7.70133C70.9621 9.81002 69.4035 12.6522 68.4866 15.7694C67.6615 18.4281 67.3865 21.1786 67.7532 23.9291C68.0282 26.4962 68.8534 29.0633 70.7787 30.8969C74.1709 34.1058 79.7636 34.1975 83.0641 30.3468C87.1898 25.5794 88.7484 19.8951 87.4649 13.6607C86.4564 8.80151 83.3392 5.86768 78.2967 5.95936Z" fill="#222222"/>
<path d="M63.9942 17.328C64.1776 22.0955 62.7107 26.4962 59.8685 30.2552C58.0349 32.6389 55.6511 34.3809 52.4423 34.6559C47.4914 35.0227 43.5491 32.2722 41.9905 27.9631C41.1654 25.5794 40.7069 23.104 40.8903 20.6285C41.257 16.1361 42.6323 12.0104 45.4744 8.4348C47.033 6.50947 49.05 5.13423 51.5254 4.58414C55.0094 3.85068 59.1351 4.85919 61.6105 8.34311C63.5358 11.2769 63.9942 13.294 63.9942 17.328ZM62.5273 17.328C62.4356 16.2278 62.4356 15.1276 62.2523 14.0274C61.7939 11.3686 60.6937 9.07657 58.4016 7.42629C55.1011 5.04255 49.7835 5.13424 46.5746 9.35162C42.4489 14.8526 41.0737 20.9036 43.3657 27.5047C44.8326 31.6304 47.6748 33.0056 51.4338 33.189C54.4593 33.2807 56.843 31.7221 58.585 29.2467C61.2438 25.7627 62.619 21.8204 62.5273 17.328Z" fill="#222222"/>
<path d="M83.8893 17.878C84.0726 20.7202 83.2475 23.1956 81.8723 25.4877C80.5887 27.5047 78.9384 29.2466 76.188 29.2466C74.9044 29.2466 73.8042 28.6965 73.0708 27.5964C71.0538 24.3875 70.8704 20.9036 71.8789 17.4196C72.6124 14.8525 73.8042 12.4688 76.0046 10.7268C78.205 8.98487 81.1388 9.62664 82.514 12.1021C83.6142 13.844 84.0726 15.861 83.8893 17.878ZM82.4224 17.6947C82.3307 17.0529 82.4223 16.1361 82.1473 15.4026C81.7806 14.2108 81.3222 13.0189 80.6804 12.1021C79.6719 10.8185 77.3798 11.0936 76.188 12.6522C73.4375 16.1361 72.1539 19.9867 73.3458 24.4792C73.6208 25.4877 74.2626 26.5879 74.9961 27.3213C76.0046 28.2381 77.7466 27.7797 79.0301 26.5879C81.5055 24.1124 82.3307 21.1786 82.4224 17.6947Z" fill="#222222"/>
<path d="M58.86 17.603C58.6767 20.9952 57.9432 23.9291 56.0179 26.4962C54.826 28.0548 53.3591 29.1549 51.2504 29.2466C49.5084 29.3383 48.4082 28.4215 47.6748 27.0463C45.5661 23.1956 45.6578 19.345 47.4914 15.4026C48.2249 13.7523 49.1417 12.1937 50.5169 11.0019C52.5339 9.16822 55.7428 9.35158 57.1181 11.6436C57.8515 12.8355 58.2182 14.2107 58.6766 15.586C58.7683 16.2278 58.7683 16.9612 58.86 17.603ZM57.3014 17.1446C57.118 16.3194 56.843 14.8525 56.2929 13.569C55.1927 10.8185 52.9923 10.3601 50.9753 12.5605C50.0585 13.6607 49.2334 14.9442 48.6833 16.2277C47.2164 19.5283 47.1247 22.9206 48.8667 26.2211C49.5084 27.413 50.792 28.1464 51.8922 27.5963C52.9007 27.1379 53.9092 26.4962 54.5509 25.671C56.4763 23.4706 57.118 20.6285 57.3014 17.1446Z" fill="#222222"/>
</svg>
