<svg width="54" height="45" viewBox="0 0 54 45" fill="none" xmlns="http://www.w3.org/2000/svg">
<rect y="38" width="54" height="6" fill="#C88570"/>
<path d="M0 43.4066C0 32.2134 0 21.0202 0 9.77438C0.315303 9.09122 0.840811 8.93357 1.52397 8.93357C13.5055 8.93357 25.5395 8.93357 37.521 8.93357C37.994 8.93357 38.2042 8.82847 38.4144 8.40807C39.5705 5.99075 40.7791 3.62598 41.9352 1.26121C42.2505 0.630602 42.6184 0.157651 43.3541 0C43.4066 0 43.5117 0 43.5643 0C45.0357 0.578055 45.2459 1.20866 44.5628 2.62752C43.6168 4.57189 42.6184 6.4637 41.6725 8.40807C41.5674 8.56572 41.5148 8.72337 41.4097 8.98612C41.6725 8.98612 41.8827 8.98612 42.0929 8.98612C45.5087 8.98612 48.9244 8.98612 52.2877 8.98612C52.9708 8.98612 53.5489 9.14377 53.8116 9.82693C53.8116 21.0202 53.8116 32.2134 53.8116 43.4592C53.6014 43.8796 53.2336 44.1949 52.7606 44.3C35.4715 44.3 18.1824 44.3 0.945909 44.3C0.525506 44.0898 0.210202 43.827 0 43.4066ZM37.048 11.1932C30.5843 11.1932 24.2257 11.1932 17.8146 11.1932C17.8146 21.4406 17.8146 31.6879 17.8146 41.9352C29.1129 41.9352 40.4113 41.9352 51.7096 41.9352C51.7096 31.6354 51.7096 21.4406 51.7096 11.1407C51.4994 11.1407 51.2892 11.1407 51.079 11.1407C47.7158 11.1407 44.3 11.1407 40.9368 11.1407C40.5164 11.1407 40.3062 11.2458 40.096 11.6662C38.0991 15.7651 36.0496 19.8115 34.0527 23.8579C33.9476 24.0681 33.8425 24.2257 33.6848 24.3834C33.0542 24.9089 32.4236 25.3818 31.7405 25.8548C31.4252 26.065 31.215 26.0125 31.215 25.5921C31.215 25.014 31.215 24.4885 31.215 23.9104C31.1624 23.3324 31.3201 22.8069 31.5828 22.2288C33.317 18.7605 35.0511 15.2922 36.7853 11.8238C36.8378 11.6136 36.9429 11.456 37.048 11.1932ZM15.5549 41.9878C15.5549 31.7404 15.5549 21.4931 15.5549 11.1932C11.0881 11.1932 6.6739 11.1932 2.25967 11.1932C2.25967 21.4931 2.25967 31.6879 2.25967 41.9878C6.6739 41.9878 11.0881 41.9878 15.5549 41.9878Z" fill="#222222"/>
<path d="M46.1393 16.5008C45.5087 16.4483 44.9306 16.4483 44.4051 16.3957C43.8796 16.3432 43.6169 16.0279 43.5118 15.5024C43.4592 14.9769 43.6694 14.609 44.0898 14.3988C44.2475 14.2937 44.5102 14.2937 44.7204 14.2937C45.5087 14.2937 46.2969 14.2937 47.0852 14.2937C47.8734 14.2937 48.2938 14.7141 48.3464 15.5549C48.3464 16.2906 48.3464 17.0263 48.3464 17.762C48.3464 18.5503 47.8734 19.0232 47.1903 19.0232C46.5071 19.0232 46.1393 18.5503 46.1393 17.7095C46.0867 17.2891 46.1393 16.9212 46.1393 16.5008Z" fill="#222222"/>
<path d="M23.3849 16.4483C23.3849 16.9738 23.3849 17.3942 23.3849 17.8146C23.3849 18.4977 22.9645 18.9707 22.3339 18.9707C21.7033 18.9707 21.2304 18.6028 21.1778 17.9197C21.1253 17.0789 21.1253 16.1855 21.1778 15.3447C21.2304 14.6616 21.6508 14.2937 22.3339 14.2937C23.1747 14.2937 24.0155 14.2937 24.8564 14.2937C25.5395 14.2937 25.9599 14.7141 26.0125 15.3447C26.0125 15.9753 25.6446 16.3957 24.9089 16.4483C24.436 16.5008 23.963 16.4483 23.3849 16.4483Z" fill="#222222"/>
<path d="M23.3849 36.6277C24.0155 36.6802 24.5936 36.6802 25.1717 36.7327C25.6446 36.7853 25.9599 37.1532 26.0125 37.6261C26.065 38.0991 25.9074 38.6771 25.487 38.6771C24.2783 38.7822 23.0171 38.7822 21.8084 38.6771C21.3355 38.6246 21.2304 38.0465 21.2304 37.6261C21.2304 36.8904 21.2304 36.1547 21.2304 35.419C21.2304 34.6307 21.7033 34.1578 22.3865 34.2103C23.0696 34.2103 23.4375 34.6833 23.4375 35.5241C23.3849 35.8394 23.3849 36.2072 23.3849 36.6277Z" fill="#222222"/>
<path d="M46.1393 36.6802C46.1393 36.2073 46.1393 35.7869 46.1393 35.3665C46.1393 34.6833 46.5597 34.2103 47.1903 34.2103C47.8209 34.1578 48.2938 34.5782 48.3464 35.3139C48.3989 36.1547 48.3989 36.943 48.3464 37.7838C48.2938 38.5195 47.8734 38.8873 47.1377 38.8873C46.2969 38.8873 45.5086 38.8873 44.6678 38.8873C43.9847 38.8873 43.5643 38.4669 43.5117 37.8363C43.5117 37.2057 43.8796 36.7853 44.5627 36.7328C45.0357 36.6802 45.5612 36.6802 46.1393 36.6802Z" fill="#222222"/>
<path d="M5.25504 26.5905C5.25504 24.5936 6.8841 22.9645 8.88102 22.912C10.8779 22.912 12.507 24.5411 12.5595 26.538C12.5595 28.5349 10.9305 30.1639 8.93356 30.2165C6.8841 30.2165 5.25504 28.5874 5.25504 26.5905ZM10.2999 26.5905C10.2999 25.8023 9.72182 25.1191 8.93356 25.1191C8.14531 25.1191 7.46216 25.6972 7.46216 26.4854C7.40961 27.3262 8.04021 27.9568 8.88102 28.0094C9.66928 28.0094 10.2999 27.4313 10.2999 26.5905Z" fill="#222222"/>
<path d="M8.88102 18.1825C8.09276 18.1825 7.25195 18.1825 6.46369 18.1825C5.62289 18.1825 5.14993 17.6044 5.25503 16.8687C5.36013 16.3432 5.78054 15.9753 6.3586 15.9753C8.04021 15.9753 9.72183 15.9753 11.4034 15.9753C12.0866 15.9753 12.507 16.4483 12.507 17.0789C12.507 17.7095 12.034 18.1825 11.3509 18.1825C10.5101 18.235 9.72182 18.1825 8.88102 18.1825Z" fill="#222222"/>
<path d="M8.82847 37.1532C8.04021 37.1532 7.30451 37.1532 6.51625 37.1532C5.72799 37.1532 5.25504 36.7328 5.25504 36.0496C5.25504 35.3664 5.72799 34.946 6.51625 34.946C8.09276 34.946 9.66928 34.946 11.2458 34.946C12.034 34.946 12.507 35.3664 12.507 36.0496C12.507 36.6802 12.034 37.1532 11.2458 37.1532C10.4575 37.1532 9.61672 37.1532 8.82847 37.1532Z" fill="#222222"/>
</svg>
