<svg width="43" height="42" viewBox="0 0 43 42" fill="none" xmlns="http://www.w3.org/2000/svg">
<rect y="36" width="43" height="6" fill="#C88570"/>
<path d="M0 0C14.3333 0 28.6667 0 43 0C43 14 43 28 43 42C28.6667 42 14.3333 42 0 42C0 28 0 14 0 0ZM41.5069 32.2778C28.169 32.2778 14.831 32.2778 1.49306 32.2778C1.49306 35.0972 1.49306 37.8194 1.49306 40.5416C14.831 40.5416 28.169 40.5416 41.5069 40.5416C41.5069 37.8194 41.5069 35.0972 41.5069 32.2778ZM11.5463 7.09722C11.5463 15.0694 11.5463 22.9444 11.5463 30.8194C14.6319 30.8194 17.7176 30.8194 20.8033 30.8194C20.8033 22.8472 20.8033 14.9722 20.8033 7.09722C17.6181 7.09722 14.6319 7.09722 11.5463 7.09722ZM31.4537 30.8194C31.4537 22.8472 31.4537 14.9722 31.4537 7.09722C28.3681 7.09722 25.2824 7.09722 22.1968 7.09722C22.1968 15.0694 22.1968 22.8472 22.1968 30.8194C25.382 30.8194 28.3681 30.8194 31.4537 30.8194ZM1.49306 7.09722C1.49306 15.0694 1.49306 22.9444 1.49306 30.8194C4.37963 30.8194 7.16666 30.8194 9.9537 30.8194C9.9537 22.8472 9.9537 14.9722 9.9537 7.09722C7.06713 7.09722 4.28009 7.09722 1.49306 7.09722ZM41.5069 30.8194C41.5069 22.8472 41.5069 14.9722 41.5069 7.09722C38.6204 7.09722 35.8333 7.09722 33.0463 7.09722C33.0463 15.0694 33.0463 22.9444 33.0463 30.8194C35.9329 30.8194 38.7199 30.8194 41.5069 30.8194ZM1.49306 5.54167C14.9306 5.54167 28.2685 5.54167 41.5069 5.54167C41.5069 4.18056 41.5069 2.81944 41.5069 1.45833C28.169 1.45833 14.831 1.45833 1.49306 1.45833C1.49306 2.81944 1.49306 4.18056 1.49306 5.54167Z" fill="#222222"/>
<path d="M2.8866 4.08332C2.8866 3.69443 2.8866 3.30554 2.8866 2.81943C3.28474 2.81943 3.78242 2.81943 4.18057 2.81943C4.57871 4.18054 4.37965 4.37499 2.8866 4.08332Z" fill="#222222"/>
<path d="M7.06713 4.18055C6.56945 4.18055 6.17131 4.18055 5.77316 4.18055C5.77316 3.69444 5.77316 3.30555 5.77316 2.91666C6.17131 2.91666 6.56945 2.91666 7.06713 2.91666C7.06713 3.20832 7.06713 3.69444 7.06713 4.18055Z" fill="#222222"/>
<path d="M40.1134 4.18055C39.6157 4.18055 39.2176 4.18055 38.8194 4.18055C38.8194 3.69444 38.8194 3.30555 38.8194 2.91666C39.2176 2.91666 39.7153 2.91666 40.1134 2.91666C40.1134 3.20832 40.1134 3.69444 40.1134 4.18055Z" fill="#222222"/>
<path d="M8.56018 4.18055C8.56018 3.69444 8.56018 3.30555 8.56018 2.91666C9.05787 2.91666 9.45601 2.91666 9.95369 2.91666C9.95369 3.30555 9.95369 3.69444 9.95369 4.18055C9.55554 4.18055 9.05787 4.18055 8.56018 4.18055Z" fill="#222222"/>
</svg>
